<svg xmlns="http://www.w3.org/2000/svg" width="110.084" height="84.725" viewBox="0 0 110.084 84.725"><defs><style>.a{fill:#37475a;}.b{fill:#1c9a5b;}.c{fill:#374759;}.d{fill:#374659;}.e{fill:#61d2b4;}.f{fill:#65d3b6;}.g{fill:#67d3b6;}.h{fill:#404f61;}.i{fill:#3c4c5e;}.j{fill:#3c4b5d;}.k{fill:none;stroke-linecap:round;}.l,.m{stroke:none;}.m{fill:#354558;}</style></defs><g transform="translate(-1362 -184.045)"><path class="a" d="M1362,523.983c.4-.389.744-.9,1.4-.818a1.3,1.3,0,0,1,1.159.965,1.194,1.194,0,0,1-.431,1.336,1.213,1.213,0,0,1-1.483.1,5.956,5.956,0,0,1-.643-.511Z" transform="translate(0 -266.188)"/><path class="b" d="M1565.477,547.734q6.285,0,12.571,0c1.167,0,1.768.418,1.793,1.227.027.862-.624,1.376-1.788,1.379-3.008.007-6.017,0-9.025.008-.429,0-.955-.172-.979.609-.026.841.525.685,1,.687,1.54.006,3.08-.008,4.62.006.956.009,1.7.606,1.595,1.336a1.4,1.4,0,0,1-1.582,1.26c-5.265-.013-10.529,0-15.794-.009a1.487,1.487,0,0,1-1.648-1.318c-.006-.73.684-1.266,1.674-1.273,1.4-.01,2.794-.018,4.19,0,.489.007.712-.129.711-.662,0-.55-.268-.649-.735-.648-3.009.01-6.017.005-9.025,0a3.77,3.77,0,0,1-.96-.051,1.253,1.253,0,0,1-1.052-1.409,1.2,1.2,0,0,1,1.216-1.135c.535-.033,1.074-.012,1.611-.012Z" transform="translate(-148.385 -285.476)"/><path class="b" d="M1512.259,547.748q1.284,0,2.568,0a1.214,1.214,0,0,1,1.351,1.218,1.268,1.268,0,0,1-1.332,1.373c-1.711.048-3.425.043-5.136,0a1.274,1.274,0,0,1-1.359-1.355,1.247,1.247,0,0,1,1.446-1.236C1510.618,547.761,1511.439,547.749,1512.259,547.748Z" transform="translate(-114.878 -285.489)"/><path class="b" d="M1695.095,547.746c.856,0,1.713,0,2.569,0a1.228,1.228,0,0,1,1.379,1.194,1.262,1.262,0,0,1-1.317,1.392c-1.746.057-3.5.061-5.243,0a1.245,1.245,0,0,1-1.272-1.323,1.215,1.215,0,0,1,1.316-1.257C1693.382,547.737,1694.239,547.747,1695.095,547.746Z" transform="translate(-258.415 -285.487)"/><path class="c" d="M1836.707,525.7c-.285,0-.571.008-.855,0-.846-.03-1.389-.48-1.372-1.312a1.3,1.3,0,0,1,1.411-1.3c.569-.024,1.141-.019,1.711,0a1.3,1.3,0,0,1,1.426,1.289c.02.882-.569,1.332-1.464,1.33Z" transform="translate(-370.875 -266.118)"/><path class="d" d="M1382.653,525.689c-.321,0-.642.009-.962,0a1.24,1.24,0,0,1-1.335-1.246,1.284,1.284,0,0,1,1.347-1.361c.568-.039,1.14-.016,1.71-.006.874.015,1.492.441,1.49,1.326s-.614,1.308-1.5,1.3c-.25,0-.5,0-.749,0Z" transform="translate(-14.408 -266.111)"/><path class="a" d="M1863.18,525.855a1.245,1.245,0,0,1-1.225-1.34,1.2,1.2,0,0,1,1.319-1.251,1.214,1.214,0,0,1,1.252,1.33A1.255,1.255,0,0,1,1863.18,525.855Z" transform="translate(-392.442 -266.272)"/><path class="e" d="M1612.1,296.84c-.093.186-.213.444-.35.691-.114.2-.2.531-.535.3s-.032-.417.076-.617c.129-.24.413-.4.394-.672-.4-.4-1.163.516-1.249-.267-.067-.611.792-.053,1.1-.375.251-.5-1-.825-.254-1.2.7-.354.343.8,1.107.861-.2.063-.133.06-.091.026.327-.271.229-1.189.75-.925.811.41-.474.694-.088,1.367-.138-.145-.1-.085-.05-.057.332.181,1.1-.3,1.009.325-.1.749-.861-.136-1.26.241-.013.47,1.027.9.423,1.246C1612.411,298.171,1612.694,296.953,1612.1,296.84Z" transform="translate(-197.843 -97.867)"/><path class="f" d="M1735.4,220.787c-.352-.3-1.111.416-1.139-.247-.032-.755.741-.1,1.094-.325.012-.055.051-.124.035-.176-.112-.367-.866-.727-.389-1.026.673-.422.472.687.944.816a.858.858,0,0,0,.159-.088c.289-.248.2-1.124.7-.812.662.418-.35.743-.34,1.213.027.033.061.116.106.122.373.052,1.06-.35,1.044.225-.02.7-.747.072-1.126.254-.117.305.175.42.292.615.13.216.521.426.1.68-.377.228-.473-.11-.584-.383a5.782,5.782,0,0,0-.283-.538.957.957,0,0,0-.234.1c-.286.257-.3,1.1-.751.79C1734.426,221.594,1735.485,221.281,1735.4,220.787Z" transform="translate(-292.206 -27.331)"/><path class="g" d="M1445.9,330.685c-.406.158-.316,1.041-.823.735-.465-.281.314-.585.317-1-.262-.295-.755.132-1.023-.267.129-.53.629-.118.888-.345.3-.373-.761-.745-.092-1.02.491-.2.31.629.726.758.4-.1.251-1.019.739-.76.6.319-.363.627-.209,1.043.291.189.711-.14,1.014.252-.239.465-.7.135-1.023.273-.242.437.843.78.179,1.11C1446.118,331.7,1446.274,330.868,1445.9,330.685Z" transform="translate(-64.658 -113.577)"/><path class="a" d="M1743.1,301.451a2.008,2.008,0,0,0-1.888,1.972,1.973,1.973,0,1,0,3.945-.071A1.983,1.983,0,0,0,1743.1,301.451Zm.035,2.912a.87.87,0,0,1-.9-.982c.007-.613.425-.851.892-.968.637.091,1.03.392,1.031.975A.893.893,0,0,1,1743.135,304.364Z" transform="translate(-297.665 -92.157)"/><path class="h" d="M1847.133,229.818a1.3,1.3,0,0,0-1.362-1.226,1.309,1.309,0,0,0,.053,2.616A1.348,1.348,0,0,0,1847.133,229.818Zm-1.269.724c-.394-.057-.636-.234-.651-.619a.552.552,0,0,1,.559-.644.574.574,0,0,1,.676.638A.638.638,0,0,1,1845.863,230.542Z" transform="translate(-378.765 -34.968)"/><path class="i" d="M1405.209,244.215a1.252,1.252,0,0,0-1.3-1.266c-.805-.006-1.2.489-1.311,1.251a1.3,1.3,0,0,0,1.248,1.335A1.329,1.329,0,0,0,1405.209,244.215Zm-1.309.671a.61.61,0,0,1-.616-.607.572.572,0,0,1,.621-.675.586.586,0,0,1,.624.587A.641.641,0,0,1,1403.9,244.886Z" transform="translate(-31.865 -46.237)"/><path class="j" d="M1613.973,184.046a1.187,1.187,0,0,0-1.24,1.323,1.25,1.25,0,0,0,1.32,1.274,1.278,1.278,0,0,0,1.251-1.347A1.214,1.214,0,0,0,1613.973,184.046Zm.068,1.925a.637.637,0,0,1-.026-1.273.6.6,0,0,1,.625.591A.605.605,0,0,1,1614.042,185.971Z" transform="translate(-196.814)"/><path class="j" d="M1503.475,256.091a1.264,1.264,0,0,0-1.309,1.268,1.291,1.291,0,0,0,1.357,1.314,1.291,1.291,0,0,0-.048-2.582Zm.617,1.362a.573.573,0,0,1-.66.564.635.635,0,0,1,.06-1.269A.584.584,0,0,1,1504.092,257.453Z" transform="translate(-110.021 -56.553)"/><path class="f" d="M1833.55,354.183c-.263-.224-.83.311-.851-.185-.024-.564.554-.072.818-.243.009-.041.038-.092.026-.132-.084-.275-.647-.543-.291-.766.5-.315.353.514.706.61a.628.628,0,0,0,.119-.066c.216-.185.152-.84.522-.607.495.312-.261.555-.254.906.02.024.046.087.079.091.278.039.792-.262.78.168-.015.523-.558.054-.841.19-.087.228.131.314.218.46.1.161.39.318.076.508-.282.17-.353-.082-.436-.286a4.23,4.23,0,0,0-.212-.4.717.717,0,0,0-.175.073c-.214.192-.224.822-.562.59C1832.822,354.786,1833.614,354.553,1833.55,354.183Z" transform="translate(-369.477 -132.423)"/><g transform="translate(2530.963 -31.531)"><g class="k"><path class="l" d="M-1137.754,251.943c0-2.166-.005-4.331,0-6.5a3.651,3.651,0,0,1,3.2-4.043c6.5-1.444,13.008-2.889,19.524-4.283a5.088,5.088,0,0,1,2.078.129q9.431,2.084,18.85,4.226c1.993.45,3.2,1.606,3.194,3.489a143.578,143.578,0,0,1-.36,15.1c-1.135,10.382-6.2,18.687-14.479,25.023-2.133,1.632-4.33,3.18-6.51,4.75a3.111,3.111,0,0,1-3.871.123c-3.721-2.8-7.636-5.427-10.955-8.657a35.115,35.115,0,0,1-10.545-23.424c-.072-1.005-.1-2.013-.126-3.021C-1137.769,253.885-1137.753,252.914-1137.754,251.943Zm16.9,6.018c-.535.026-.861.051-1.187.056-1.483.026-1.73.271-1.732,1.795,0,3.435-.009,6.87.008,10.305.006,1.222.333,1.557,1.514,1.559q7.951.012,15.9-.008c1.2,0,1.5-.328,1.509-1.55.01-3.211,0-6.422.009-9.633.007-2.351.016-2.351-2.289-2.468-.141-.007-.281-.044-.623-.1,0-1.344.1-2.687-.02-4.009a6.443,6.443,0,0,0-6.538-5.808,6.42,6.42,0,0,0-6.534,5.806C-1120.957,255.229-1120.858,256.57-1120.858,257.961Z"/><path class="m" d="M -1114.388427734375 240.0577392578125 C -1114.4033203125 240.0577392578125 -1114.413940429688 240.0581359863281 -1114.420654296875 240.0584716796875 C -1120.8681640625 241.4377136230469 -1127.417724609375 242.8923034667969 -1133.752197265625 244.2991027832031 L -1133.897216796875 244.3313293457031 C -1134.475219726562 244.4596862792969 -1134.622192382812 244.6082153320312 -1134.623291015625 244.609619140625 C -1134.624633789062 244.6112365722656 -1134.750732421875 244.80029296875 -1134.752563476562 245.4546203613281 C -1134.756958007812 246.9918518066406 -1134.755737304688 248.5575256347656 -1134.754638671875 250.0716857910156 C -1134.754150390625 250.6952819824219 -1134.753662109375 251.31884765625 -1134.753540039062 251.9414367675781 C -1134.75341796875 252.2478637695312 -1134.7548828125 252.5543212890625 -1134.75634765625 252.8608093261719 C -1134.759643554688 253.5291748046875 -1134.7626953125 254.1604309082031 -1134.7490234375 254.7905578613281 C -1134.731689453125 255.5894165039062 -1134.70263671875 256.6378173828125 -1134.629516601562 257.6631774902344 C -1134.327026367188 261.91650390625 -1133.379150390625 265.8658142089844 -1131.811889648438 269.4014282226562 C -1130.206909179688 273.0221252441406 -1127.90966796875 276.3021850585938 -1124.983764648438 279.1505126953125 C -1122.588623046875 281.4823913574219 -1119.859375 283.4823608398438 -1116.9697265625 285.5997619628906 C -1116.099487304688 286.2374572753906 -1115.19970703125 286.8968505859375 -1114.317626953125 287.5606384277344 C -1114.314697265625 287.5628967285156 -1114.311767578125 287.5650024414062 -1114.30908203125 287.5669250488281 C -1114.252197265625 287.549072265625 -1114.146240234375 287.5026245117188 -1114.004638671875 287.4006042480469 C -1113.529663085938 287.0581665039062 -1113.0537109375 286.7168273925781 -1112.577758789062 286.37548828125 C -1110.91552734375 285.183349609375 -1109.196655273438 283.9505920410156 -1107.563720703125 282.7012939453125 C -1103.694946289062 279.7410278320312 -1100.615234375 276.3333129882812 -1098.41015625 272.5728149414062 C -1096.157104492188 268.7306213378906 -1094.755493164062 264.4114379882812 -1094.244140625 259.7351684570312 C -1093.840942382812 256.0480651855469 -1093.865112304688 252.3349914550781 -1093.890625 248.4039001464844 C -1093.89794921875 247.2749633789062 -1093.905517578125 246.1076049804688 -1093.901733398438 244.9543762207031 C -1093.901245117188 244.8228149414062 -1093.919555664062 244.7622375488281 -1093.92431640625 244.7486572265625 C -1093.969482421875 244.6943969726562 -1094.20654296875 244.5260314941406 -1094.757202148438 244.4016723632812 C -1100.5556640625 243.0918273925781 -1107.127807617188 241.6072082519531 -1113.592895507812 240.1784973144531 C -1113.728149414062 240.1486206054688 -1114.139770507812 240.0577392578125 -1114.388427734375 240.0577392578125 M -1104.707641601562 255.2923278808594 C -1104.201416015625 255.4374084472656 -1103.514770507812 255.731689453125 -1102.926635742188 256.3594665527344 C -1102.0419921875 257.3035583496094 -1101.9228515625 258.4277648925781 -1101.883666992188 258.7971801757812 C -1101.831665039062 259.2881469726562 -1101.833251953125 259.8089294433594 -1101.835205078125 260.4682312011719 L -1101.835327148438 260.4947204589844 C -1101.840087890625 262.063720703125 -1101.839721679688 263.6614990234375 -1101.83935546875 265.2066650390625 C -1101.838989257812 266.8190612792969 -1101.838623046875 268.4863891601562 -1101.843994140625 270.12890625 C -1101.845947265625 270.7108154296875 -1101.85107421875 272.256591796875 -1102.997192382812 273.4390258789062 C -1104.184204101562 274.6634521484375 -1105.754272460938 274.6672973632812 -1106.345581054688 274.6687622070312 C -1109.723510742188 274.6767578125 -1113.090698242188 274.6808471679688 -1116.353759765625 274.6808471679688 C -1118.333129882812 274.6808471679688 -1120.3203125 274.6793212890625 -1122.260131835938 274.6763916015625 C -1122.792358398438 274.6755981445312 -1124.411743164062 274.673095703125 -1125.605102539062 273.4447631835938 C -1126.640014648438 272.379638671875 -1126.765380859375 271.0436096191406 -1126.769653320312 270.1314086914062 C -1126.78466796875 266.9422302246094 -1126.781372070312 263.7039184570312 -1126.778076171875 260.5722045898438 L -1126.77734375 259.8086242675781 C -1126.776489257812 258.9859008789062 -1126.77490234375 257.4544982910156 -1125.62109375 256.2643737792969 C -1125.093505859375 255.7202758789062 -1124.480590820312 255.416015625 -1123.896484375 255.2446899414062 C -1123.893676757812 254.7211303710938 -1123.875854492188 254.1869506835938 -1123.8271484375 253.6403198242188 C -1123.615112304688 251.2578735351562 -1122.517700195312 249.0794067382812 -1120.737182617188 247.5062255859375 C -1118.99658203125 245.9683837890625 -1116.718139648438 245.1141357421875 -1114.3212890625 245.100830078125 L -1114.2666015625 245.1006774902344 C -1111.895263671875 245.1007385253906 -1109.625366210938 245.9569396972656 -1107.874877929688 247.5115966796875 C -1106.0947265625 249.0926208496094 -1104.995361328125 251.2675476074219 -1104.779296875 253.6355590820312 C -1104.7275390625 254.2024536132812 -1104.709594726562 254.7536010742188 -1104.707641601562 255.2923278808594 M -1114.388427734375 237.0577392578125 C -1113.908447265625 237.0577392578125 -1113.4091796875 237.1467895507812 -1112.946166992188 237.2490234375 C -1106.658569335938 238.6385192871094 -1100.377319335938 240.0565185546875 -1094.09619140625 241.4754028320312 C -1092.103393554688 241.9254150390625 -1090.8955078125 243.0814819335938 -1090.901733398438 244.9642944335938 C -1090.918334960938 249.9995422363281 -1090.716552734375 255.0743103027344 -1091.261962890625 260.0613098144531 C -1092.397216796875 270.4437866210938 -1097.461181640625 278.7486267089844 -1105.74072265625 285.0838317871094 C -1107.873657226562 286.7156982421875 -1110.071166992188 288.263427734375 -1112.25048828125 289.8342895507812 C -1112.919555664062 290.3165893554688 -1113.636108398438 290.5758666992188 -1114.340698242188 290.5758666992188 C -1114.95654296875 290.5758666992188 -1115.563354492188 290.3778381347656 -1116.121826171875 289.9574890136719 C -1119.842529296875 287.1574096679688 -1123.75830078125 284.5305786132812 -1127.076538085938 281.300048828125 C -1133.604125976562 274.9453125 -1136.974975585938 266.97509765625 -1137.621948242188 257.8759460449219 C -1137.693603515625 256.8709106445312 -1137.7265625 255.8625183105469 -1137.748291015625 254.8552551269531 C -1137.769409179688 253.8847961425781 -1137.753051757812 252.9136352539062 -1137.753540039062 251.9429626464844 C -1137.75390625 249.77734375 -1137.758666992188 247.6117553710938 -1137.752563476562 245.4461669921875 C -1137.746337890625 243.1566772460938 -1136.760375976562 241.8942260742188 -1134.5478515625 241.4027099609375 C -1128.043701171875 239.9582214355469 -1121.539428710938 238.5133056640625 -1115.024291992188 237.1197509765625 C -1114.819702148438 237.0760498046875 -1114.606079101562 237.0577392578125 -1114.388427734375 237.0577392578125 Z M -1116.353759765625 271.6808471679688 C -1113.019897460938 271.6808471679688 -1109.6865234375 271.6766662597656 -1106.352661132812 271.6687622070312 C -1105.156616210938 271.6658325195312 -1104.848022460938 271.3408508300781 -1104.843994140625 270.1190185546875 C -1104.83349609375 266.9079895019531 -1104.844970703125 263.6967468261719 -1104.835327148438 260.4857177734375 C -1104.828125 258.13427734375 -1104.8193359375 258.1351928710938 -1107.1240234375 258.017578125 C -1107.265502929688 258.0103759765625 -1107.405517578125 257.9733581542969 -1107.7470703125 257.917236328125 C -1107.7470703125 256.5728759765625 -1107.646118164062 255.2305297851562 -1107.766845703125 253.9083557128906 C -1108.071044921875 250.5753479003906 -1110.896606445312 248.1007690429688 -1114.2666015625 248.1007080078125 C -1114.279418945312 248.1007080078125 -1114.292114257812 248.1007385253906 -1114.304931640625 248.1007995605469 C -1117.746704101562 248.119873046875 -1120.540771484375 250.55615234375 -1120.838989257812 253.9063110351562 C -1120.956787109375 255.2289428710938 -1120.858276367188 256.5704040527344 -1120.858276367188 257.9607849121094 C -1121.393188476562 257.98681640625 -1121.71923828125 258.0112915039062 -1122.045776367188 258.0169067382812 C -1123.528930664062 258.04248046875 -1123.775756835938 258.2882385253906 -1123.77734375 259.8117370605469 C -1123.78076171875 263.2469787597656 -1123.785888671875 266.6821899414062 -1123.769653320312 270.1172180175781 C -1123.763916015625 271.3388366699219 -1123.436889648438 271.6745910644531 -1122.255615234375 271.6763916015625 C -1120.288452148438 271.6793823242188 -1118.320922851562 271.6808471679688 -1116.353759765625 271.6808471679688 Z"/></g><g class="k" transform="translate(-69.438 -49.109)"><path class="l" d="M-1041.523,307h-6.662a35.719,35.719,0,0,1,.027-3.844,3.24,3.24,0,0,1,3.6-2.77,3.271,3.271,0,0,1,3.024,3.166C-1041.491,304.667-1041.523,305.783-1041.523,307Z"/><path class="m" d="M -1044.5185546875 304.0010986328125 C -1044.521118164062 303.8860168457031 -1044.524291992188 303.7717590332031 -1044.5283203125 303.6582336425781 C -1044.534301757812 303.4883422851562 -1044.660888671875 303.3864440917969 -1044.746337890625 303.3809814453125 C -1044.768920898438 303.3795166015625 -1044.791381835938 303.3787841796875 -1044.813232421875 303.3787841796875 C -1045.029052734375 303.3787841796875 -1045.1455078125 303.4486999511719 -1045.174194335938 303.4747009277344 C -1045.1748046875 303.4777221679688 -1045.175415039062 303.4817504882812 -1045.176025390625 303.4869079589844 C -1045.194213867188 303.6519470214844 -1045.20654296875 303.8236694335938 -1045.214477539062 304.0010986328125 L -1044.5185546875 304.0010986328125 M -1041.522827148438 307.0010986328125 L -1048.1845703125 307.0010986328125 C -1048.1845703125 305.670166015625 -1048.295166015625 304.4000854492188 -1048.157836914062 303.1573791503906 C -1047.973266601562 301.4880676269531 -1046.531860351562 300.3787841796875 -1044.813232421875 300.3787841796875 C -1044.727416992188 300.3787841796875 -1044.64111328125 300.3815612792969 -1044.554077148438 300.3871459960938 C -1042.9169921875 300.4921875 -1041.58984375 301.8551940917969 -1041.530151367188 303.5528259277344 C -1041.49072265625 304.6667175292969 -1041.522827148438 305.7830810546875 -1041.522827148438 307.0010986328125 Z"/></g><g class="k" transform="translate(-73.813 -84.246)"><path class="l" d="M-1040.617,352.358c-1.513,0-1.591-.088-1.166-1.507.195-.65.375-1.174-.266-1.783a1.959,1.959,0,0,1,.207-2.874,2.042,2.042,0,0,1,2.824.117,1.887,1.887,0,0,1-.077,2.854c-.674.531-.416,1.012-.271,1.562C-1038.941,352.33-1038.961,352.361-1040.617,352.358Z"/><path class="m" d="M -1040.4814453125 352.3584289550781 C -1040.525390625 352.3584289550781 -1040.570434570312 352.3583679199219 -1040.616943359375 352.3582763671875 C -1042.129638671875 352.3553466796875 -1042.207885742188 352.2698364257812 -1041.783081054688 350.8516235351562 C -1041.588500976562 350.201416015625 -1041.407836914062 349.6771240234375 -1042.049194335938 349.0689086914062 C -1042.878051757812 348.2833862304688 -1042.698364257812 346.928466796875 -1041.842041015625 346.1947631835938 C -1041.443237304688 345.8529357910156 -1040.966064453125 345.6836547851562 -1040.49072265625 345.6836547851562 C -1039.960205078125 345.6836547851562 -1039.432250976562 345.8944091796875 -1039.017822265625 346.3114624023438 C -1038.210693359375 347.1234741210938 -1038.161743164062 348.4306030273438 -1039.0947265625 349.1658630371094 C -1039.7685546875 349.6971130371094 -1039.510864257812 350.1776428222656 -1039.365234375 350.7277221679688 C -1038.953002929688 352.2850036621094 -1038.960327148438 352.3584289550781 -1040.4814453125 352.3584289550781 Z"/></g></g></g></svg>