<svg xmlns="http://www.w3.org/2000/svg" width="24" height="24" viewBox="0 0 24 24"><defs><style>.a{fill:#fff;stroke:#fff;}.b{stroke:none;}.c{fill:none;}</style></defs><g transform="translate(-1184 -4)"><g class="a" transform="translate(1184 4)"><rect class="b" width="24" height="24" rx="4"/><rect class="c" x="0.5" y="0.5" width="23" height="23" rx="3.5"/></g><g transform="translate(820.987 -1291.207)"><path d="M373.748,1308.391h-1.533c-1.211,0-2.422,0-3.634,0a1.526,1.526,0,0,1-1.566-1.566q-.006-3.006,0-6.012a1.532,1.532,0,0,1,1.228-1.566,3.491,3.491,0,0,1,.7-.037q2.86,0,5.719,0a1.54,1.54,0,0,1,1.608,1.594c.006,1.619,0,3.237,0,4.856v.291h.194q2.477,0,4.953,0a1.535,1.535,0,0,1,1.523,1.1,1.646,1.646,0,0,1,.068.464q.006,3.088,0,6.176a1.416,1.416,0,0,1-1.211,1.488,4.555,4.555,0,0,1-.78.032q-2.835,0-5.67,0A1.516,1.516,0,0,1,373.8,1314a3.5,3.5,0,0,1-.045-.745q0-2.346,0-4.693C373.755,1308.511,373.751,1308.463,373.748,1308.391Zm.786.024c0,.031-.007.052-.007.073,0,1.721,0,3.442,0,5.163a.811.811,0,0,0,.894.856h6.059a.816.816,0,0,0,.9-.9q0-3.038,0-6.075a.809.809,0,0,0-.88-.882h-5.2C376.14,1307.919,375.77,1308.289,374.534,1308.416Zm-6.822-4.584h0c0,1.026,0,2.053,0,3.079a.8.8,0,0,0,.863.852c1.591,0,3.182.005,4.773,0,.457,0,.915-.035,1.372-.07a.77.77,0,0,0,.767-.742c.041-.363.062-.729.076-1.094.012-.32,0-.641,0-.961q0-2.061,0-4.122a.8.8,0,0,0-.725-.854,2.065,2.065,0,0,0-.277-.009h-5.93a.829.829,0,0,0-.924.926Q367.712,1302.332,367.712,1303.831Z"/><path d="M367.889,1614.937a4.484,4.484,0,0,0,3.609,4.187,8.8,8.8,0,0,0,.888.1c.229.018.358.137.355.355a.327.327,0,0,1-.368.342,5.208,5.208,0,0,1-5.136-4.423,6.718,6.718,0,0,1-.057-.908.328.328,0,0,1,.369-.375c.494,0,.988,0,1.482,0a.34.34,0,0,1,.371.292.345.345,0,0,1-.288.391.935.935,0,0,1-.225.023c-.32,0-.64,0-.961.006C367.918,1614.921,367.909,1614.928,367.889,1614.937Z" transform="translate(-0.16 -304.713)"/><path d="M691.353,1304.317a4.49,4.49,0,0,0-3.517-4.189,7.541,7.541,0,0,0-.967-.114c-.242-.02-.374-.135-.37-.358s.142-.342.386-.341a5.2,5.2,0,0,1,5.088,4.248,8.058,8.058,0,0,1,.087,1.1.318.318,0,0,1-.351.358q-.725.008-1.45,0a.333.333,0,0,1-.356-.359.338.338,0,0,1,.37-.345C690.63,1304.314,690.987,1304.317,691.353,1304.317Z" transform="translate(-309.053 -0.104)"/><path d="M655.813,1571.359c-.277,0-.554.006-.831,0a.173.173,0,0,0-.2.135c-.114.322-.238.64-.36.958-.075.2-.2.283-.364.252s-.24-.17-.225-.381a.648.648,0,0,1,.038-.173q.812-2.238,1.627-4.474a.39.39,0,0,1,.751,0q.814,2.237,1.626,4.474c.073.2.048.32-.077.41-.211.151-.357.166-.505.035a.533.533,0,0,1-.129-.2c-.118-.3-.231-.6-.338-.9a.173.173,0,0,0-.2-.14C656.357,1571.366,656.085,1571.359,655.813,1571.359Zm-.709-.71h1.4l-.7-1.851Z" transform="translate(-277.453 -259.424)"/><path d="M430.775,1355.144a3.891,3.891,0,0,1-1.051-2.278c-.184,0-.363.012-.539,0a.644.644,0,0,1-.3-.1.278.278,0,0,1-.129-.351.355.355,0,0,1,.348-.245h1.856c0-.17,0-.326,0-.482,0-.271,0-.543,0-.814,0-.248.125-.372.352-.37s.338.125.34.365c0,.369,0,.738,0,1.107v.194h.711c.358,0,.717,0,1.075,0a.35.35,0,1,1,.077.694c-.166.02-.336,0-.5.012-.042,0-.112.055-.115.09a3.685,3.685,0,0,1-1.018,2.2,2.486,2.486,0,0,0,.923.388c.243.049.494.064.741.09a.347.347,0,0,1,.32.472.33.33,0,0,1-.355.226,3.64,3.64,0,0,1-2.025-.609.241.241,0,0,0-.313,0,3.74,3.74,0,0,1-2.061.6.338.338,0,0,1-.382-.347.334.334,0,0,1,.366-.348A3.166,3.166,0,0,0,430.775,1355.144Zm-.339-2.268a3.062,3.062,0,0,0,.877,1.838,3.07,3.07,0,0,0,.87-1.838Z" transform="translate(-59.705 -49.615)"/></g></g></svg>