<svg xmlns="http://www.w3.org/2000/svg" width="110.084" height="84.725" viewBox="0 0 110.084 84.725"><defs><style>.a{fill:#37475a;}.b{fill:#1c9a5b;}.c{fill:#374759;}.d{fill:#374659;}.e{fill:#61d2b4;}.f{fill:#65d3b6;}.g{fill:#67d3b6;}.h{fill:#404f61;}.i{fill:#3c4c5e;}.j{fill:#3c4b5d;}.k{fill:#354558;}</style></defs><g transform="translate(-1362 -184.045)"><path class="a" d="M1362,523.983c.4-.389.744-.9,1.4-.818a1.3,1.3,0,0,1,1.159.965,1.194,1.194,0,0,1-.431,1.336,1.213,1.213,0,0,1-1.483.1,5.956,5.956,0,0,1-.643-.511Z" transform="translate(0 -266.188)"/><path class="b" d="M1565.477,547.734q6.285,0,12.571,0c1.167,0,1.768.418,1.793,1.227.027.862-.624,1.376-1.788,1.379-3.008.007-6.017,0-9.025.008-.429,0-.955-.172-.979.609-.026.841.525.685,1,.687,1.54.006,3.08-.008,4.62.006.956.009,1.7.606,1.595,1.336a1.4,1.4,0,0,1-1.582,1.26c-5.265-.013-10.529,0-15.794-.009a1.487,1.487,0,0,1-1.648-1.318c-.006-.73.684-1.266,1.674-1.273,1.4-.01,2.794-.018,4.19,0,.489.007.712-.129.711-.662,0-.55-.268-.649-.735-.648-3.009.01-6.017.005-9.025,0a3.77,3.77,0,0,1-.96-.051,1.253,1.253,0,0,1-1.052-1.409,1.2,1.2,0,0,1,1.216-1.135c.535-.033,1.074-.012,1.611-.012Z" transform="translate(-148.385 -285.476)"/><path class="b" d="M1512.259,547.748q1.284,0,2.568,0a1.214,1.214,0,0,1,1.351,1.218,1.268,1.268,0,0,1-1.332,1.373c-1.711.048-3.425.043-5.136,0a1.274,1.274,0,0,1-1.359-1.355,1.247,1.247,0,0,1,1.446-1.236C1510.618,547.761,1511.439,547.749,1512.259,547.748Z" transform="translate(-114.878 -285.489)"/><path class="b" d="M1695.095,547.746c.856,0,1.713,0,2.569,0a1.228,1.228,0,0,1,1.379,1.194,1.262,1.262,0,0,1-1.317,1.392c-1.746.057-3.5.061-5.243,0a1.245,1.245,0,0,1-1.272-1.323,1.215,1.215,0,0,1,1.316-1.257C1693.382,547.737,1694.239,547.747,1695.095,547.746Z" transform="translate(-258.415 -285.487)"/><path class="c" d="M1836.707,525.7c-.285,0-.571.008-.855,0-.846-.03-1.389-.48-1.372-1.312a1.3,1.3,0,0,1,1.411-1.3c.569-.024,1.141-.019,1.711,0a1.3,1.3,0,0,1,1.426,1.289c.02.882-.569,1.332-1.464,1.33Z" transform="translate(-370.875 -266.118)"/><path class="d" d="M1382.653,525.689c-.321,0-.642.009-.962,0a1.24,1.24,0,0,1-1.335-1.246,1.284,1.284,0,0,1,1.347-1.361c.568-.039,1.14-.016,1.71-.006.874.015,1.492.441,1.49,1.326s-.614,1.308-1.5,1.3c-.25,0-.5,0-.749,0Z" transform="translate(-14.408 -266.111)"/><path class="a" d="M1863.18,525.855a1.245,1.245,0,0,1-1.225-1.34,1.2,1.2,0,0,1,1.319-1.251,1.214,1.214,0,0,1,1.252,1.33A1.255,1.255,0,0,1,1863.18,525.855Z" transform="translate(-392.442 -266.272)"/><path class="e" d="M1612.1,296.84c-.093.186-.213.444-.35.691-.114.2-.2.531-.535.3s-.032-.417.076-.617c.129-.24.413-.4.394-.672-.4-.4-1.163.516-1.249-.267-.067-.611.792-.053,1.1-.375.251-.5-1-.825-.254-1.2.7-.354.343.8,1.107.861-.2.063-.133.06-.091.026.327-.271.229-1.189.75-.925.811.41-.474.694-.088,1.367-.138-.145-.1-.085-.05-.057.332.181,1.1-.3,1.009.325-.1.749-.861-.136-1.26.241-.013.47,1.027.9.423,1.246C1612.411,298.171,1612.694,296.953,1612.1,296.84Z" transform="translate(-195.008 -86.794)"/><path class="f" d="M1735.4,220.787c-.352-.3-1.111.416-1.139-.247-.032-.755.741-.1,1.094-.325.012-.055.051-.124.035-.176-.112-.367-.866-.727-.389-1.026.673-.422.472.687.944.816a.858.858,0,0,0,.159-.088c.289-.248.2-1.124.7-.812.662.418-.35.743-.34,1.213.027.033.061.116.106.122.373.052,1.06-.35,1.044.225-.02.7-.747.072-1.126.254-.117.305.175.42.292.615.13.216.521.426.1.68-.377.228-.473-.11-.584-.383a5.782,5.782,0,0,0-.283-.538.957.957,0,0,0-.234.1c-.286.257-.3,1.1-.751.79C1734.426,221.594,1735.485,221.281,1735.4,220.787Z" transform="translate(-292.206 -27.331)"/><path class="g" d="M1445.9,330.685c-.406.158-.316,1.041-.823.735-.465-.281.314-.585.317-1-.262-.295-.755.132-1.023-.267.129-.53.629-.118.888-.345.3-.373-.761-.745-.092-1.02.491-.2.31.629.726.758.4-.1.251-1.019.739-.76.6.319-.363.627-.209,1.043.291.189.711-.14,1.014.252-.239.465-.7.135-1.023.273-.242.437.843.78.179,1.11C1446.118,331.7,1446.274,330.868,1445.9,330.685Z" transform="translate(-64.658 -113.577)"/><path class="a" d="M1743.1,301.451a2.008,2.008,0,0,0-1.888,1.972,1.973,1.973,0,1,0,3.945-.071A1.983,1.983,0,0,0,1743.1,301.451Zm.035,2.912a.87.87,0,0,1-.9-.982c.007-.613.425-.851.892-.968.637.091,1.03.392,1.031.975A.893.893,0,0,1,1743.135,304.364Z" transform="translate(-297.665 -92.157)"/><path class="h" d="M1847.133,229.818a1.3,1.3,0,0,0-1.362-1.226,1.309,1.309,0,0,0,.053,2.616A1.348,1.348,0,0,0,1847.133,229.818Zm-1.269.724c-.394-.057-.636-.234-.651-.619a.552.552,0,0,1,.559-.644.574.574,0,0,1,.676.638A.638.638,0,0,1,1845.863,230.542Z" transform="translate(-378.765 -34.968)"/><path class="i" d="M1405.209,244.215a1.252,1.252,0,0,0-1.3-1.266c-.805-.006-1.2.489-1.311,1.251a1.3,1.3,0,0,0,1.248,1.335A1.329,1.329,0,0,0,1405.209,244.215Zm-1.309.671a.61.61,0,0,1-.616-.607.572.572,0,0,1,.621-.675.586.586,0,0,1,.624.587A.641.641,0,0,1,1403.9,244.886Z" transform="translate(-31.865 -46.237)"/><path class="j" d="M1613.973,184.046a1.187,1.187,0,0,0-1.24,1.323,1.25,1.25,0,0,0,1.32,1.274,1.278,1.278,0,0,0,1.251-1.347A1.214,1.214,0,0,0,1613.973,184.046Zm.068,1.925a.637.637,0,0,1-.026-1.273.6.6,0,0,1,.625.591A.605.605,0,0,1,1614.042,185.971Z" transform="translate(-196.814)"/><path class="j" d="M1503.475,256.091a1.264,1.264,0,0,0-1.309,1.268,1.291,1.291,0,0,0,1.357,1.314,1.291,1.291,0,0,0-.048-2.582Zm.617,1.362a.573.573,0,0,1-.66.564.635.635,0,0,1,.06-1.269A.584.584,0,0,1,1504.092,257.453Z" transform="translate(-110.021 -56.553)"/><path class="f" d="M1833.55,354.183c-.263-.224-.83.311-.851-.185-.024-.564.554-.072.818-.243.009-.041.038-.092.026-.132-.084-.275-.647-.543-.291-.766.5-.315.353.514.706.61a.628.628,0,0,0,.119-.066c.216-.185.152-.84.522-.607.495.312-.261.555-.254.906.02.024.046.087.079.091.278.039.792-.262.78.168-.015.523-.558.054-.841.19-.087.228.131.314.218.46.1.161.39.318.076.508-.282.17-.353-.082-.436-.286a4.23,4.23,0,0,0-.212-.4.717.717,0,0,0-.175.073c-.214.192-.224.822-.562.59C1832.822,354.786,1833.614,354.553,1833.55,354.183Z" transform="translate(-369.477 -132.423)"/><g transform="translate(3980.724 310.127)"><path class="k" d="M-2567.232-92.335q-10.543,0-21.085-.009c-.526,0-.734.128-.733.7q.02,13.936-.006,27.873c0,.61.186.78.788.779q14.331-.025,28.663-.012c1.266,0,1.271-.01,1.277,1.225.006,1.163-.029,2.328.01,3.49.021.62-.219.781-.805.779-5.469-.015-10.938-.005-16.407-.005q-8.3,0-16.605-.007a4.4,4.4,0,0,1-4.5-4.692c.014-.461.193-.624.631-.619.988.012,1.978-.024,2.965.013.613.023.776-.2.774-.8q-.029-13.8-.012-27.609c0-2.984,1.724-4.765,4.735-4.806,3.821-.052,7.643-.018,11.464-.018q12.849,0,25.7.007a35.245,35.245,0,0,1,4.212.069,4.423,4.423,0,0,1,4.03,4.376c.05,1.822,0,3.646.019,5.469,0,.452-.173.638-.621.63-.659-.013-1.318-.006-1.977.008-.475.011-.656-.194-.652-.674.017-1.8-.018-3.595.019-5.391.013-.621-.2-.78-.794-.779Q-2556.69-92.322-2567.232-92.335Zm0,33.164c.832,0,1.664,0,2.5,0,.774-.006.938-.169.949-.912.012-.787-.177-1.009-.933-1.013-1.686-.01-3.373-.007-5.059,0-.644,0-.91.28-.925.92-.015.672.265.995.909,1C-2568.945-59.163-2568.091-59.172-2567.237-59.171Z" transform="translate(0 0)"/><path class="k" d="M-2258.694,24.037q0,6.62,0,13.24a2.145,2.145,0,0,1-2.35,2.324h-17.587a2.092,2.092,0,0,1-2.334-2.317q-.01-13.4,0-26.809a1.979,1.979,0,0,1,2.115-2.156c2.5-.07,4.992-.041,7.486-.039,2.143,0,4.289,0,6.433.017,1.31.01,2.625.088,3.94-.026a2.038,2.038,0,0,1,2.219,1.808,29.934,29.934,0,0,1,.082,4.144c.025,3.271.008,6.543.008,9.814Zm-1.838-1.32h0q0-5.663,0-11.327c0-1.08-.247-1.318-1.321-1.318q-7.87,0-15.739,0c-1.391,0-1.64.251-1.64,1.657q0,7.079,0,14.159c0,2.7-.007,5.4.005,8.1,0,1.037.318,1.374,1.244,1.375q8.034.005,16.068,0c1.2,0,1.375-.18,1.378-1.382C-2260.526,30.224-2260.532,26.47-2260.532,22.717Zm-9.306,15.682a.9.9,0,0,0,1-1.022,1,1,0,0,0-1-1.054,1.165,1.165,0,0,0-1.078,1.105A1,1,0,0,0-2269.838,38.4Z" transform="translate(-273.977 -90.565)"/></g></g></svg>